<?xml version="1.0" encoding="utf-8"?>
<!-- Generator: Adobe Illustrator 27.1.0, SVG Export Plug-In . SVG Version: 6.00 Build 0)  -->
<svg version="1.1"
	 id="svg12494" xmlns:svg="http://www.w3.org/2000/svg" xmlns:rdf="http://www.w3.org/1999/02/22-rdf-syntax-ns#" xmlns:cc="http://creativecommons.org/ns#" xmlns:dc="http://purl.org/dc/elements/1.1/"
	 xmlns="http://www.w3.org/2000/svg" xmlns:xlink="http://www.w3.org/1999/xlink" x="0px" y="0px" viewBox="0 0 373.2 251.3"
	 style="enable-background:new 0 0 373.2 251.3;" xml:space="preserve">
<style type="text/css">
	.st0{fill:#E21836;}
	.st1{fill-rule:evenodd;clip-rule:evenodd;fill:#E21836;}
</style>
<g id="g12169">
	<g id="g12175" transform="translate(55.36,702.6114)">
		<path id="path12177" class="st0" d="M-19.6-493h6.7v-13.3c0-2.4,0-5.3,1.2-7c1.2-1.9,3.4-2.5,4.6-2.5c5.6,0,5.6,6.6,5.6,8.9v13.8
			h6.7V-508c0-2.2,0-6.8-2.6-9.9c-2.3-2.8-6-3.9-8.4-3.9c-4.2,0-6.5,2.3-7.6,3.4v-2.4h-6.2V-493"/>
	</g>
	<g id="g12179" transform="translate(73.5474,706.2231)">
		<path id="path12181" class="st1" d="M17.3-507.5c0.2-0.9,0.4-2.1,0.4-3.4c0-7-5.6-14.7-14.4-14.7c-8.6,0-14.7,7.2-14.7,15.1
			c0,8.1,6.4,14.8,14.7,14.8c6.5,0,11.9-4.7,13.5-9.7h-7c-1.3,2.3-3.5,3.6-6.4,3.6c-4.8,0-7.4-3.9-7.7-5.7H17.3z M-4.5-512.9
			c1.3-5.2,5.4-6.5,7.9-6.5c3.3,0,6.8,2.1,7.5,6.5H-4.5"/>
	</g>
	<g id="g12183" transform="translate(76.5066,702.6114)">
		<path id="path12185" class="st0" d="M23.3-493h4.1l5.3-18.1h0.1L38-493h4.1l10.2-27.9h-7.1l-5.1,17H40l-4.5-17h-5.3l-4.6,17h-0.1
			l-5.1-17h-7.1L23.3-493z"/>
	</g>
	<g id="g12187" transform="translate(90.3468,702.6114)">
		<path id="path12189" class="st1" d="M51.4-493h6.1v-3.4c1.7,1.9,4,4.3,9.4,4.3c10.2,0,13.9-9.4,13.9-15c0-7.4-5.5-14.8-14-14.8
			c-3.1,0-6.4,1.2-8.7,3.5v-11.8h-6.7V-493z M57.7-507.3c0-4.1,3.2-8.4,8.3-8.4c4.2,0,8.1,3.3,8.1,8.7c0,5.4-3.7,8.8-8,8.8
			C62.2-498.2,57.7-501.1,57.7-507.3"/>
	</g>
	<g id="g12191" transform="translate(110.3256,711.808)">
		<path id="path12193" class="st1" d="M92-530h-6.1v3.5h-0.1c-0.2-0.4-3.6-4.5-9.2-4.5c-7.7,0-14,6.2-14,14.7c0,9.3,6.4,15,13.6,15
			c3.5,0,7.6-1.9,9.7-4.4v3.5H92L92-530z M85.7-516.2c0,5.2-3.5,8.8-8.1,8.8c-4.8,0-8.3-3.9-8.3-8.6c0-4.2,2.8-8.9,8.3-8.9
			C81.5-524.9,85.7-522,85.7-516.2"/>
	</g>
	<path id="path12195" class="st0" d="M212.6,172.5h-6.7v37.2h6.7V172.5z"/>
	<g id="g12197" transform="translate(124.0712,711.808)">
		<path id="path12199" class="st1" d="M119.9-530h-6.1v3.5h-0.1c-0.2-0.4-3.6-4.5-9.2-4.5c-7.7,0-14,6.2-14,14.7
			c0,9.3,6.4,15,13.6,15c3.5,0,7.6-1.9,9.7-4.4v3.5h6.1L119.9-530z M113.6-516.2c0,5.2-3.5,8.8-8.1,8.8c-4.8,0-8.3-3.9-8.3-8.6
			c0-4.2,2.8-8.9,8.3-8.9C109.4-524.9,113.6-522,113.6-516.2"/>
	</g>
	<g id="g12201" transform="translate(125.2441,702.6114)">
		<path id="path12203" class="st0" d="M122.3-493h6.7v-13.3c0-2.4,0-5.3,1.2-7c1.2-1.9,3.4-2.5,4.6-2.5c5.6,0,5.6,6.6,5.6,8.9v13.8
			h6.7V-508c0-2.2,0-6.8-2.6-9.9c-2.3-2.8-6-3.9-8.4-3.9c-4.2,0-6.5,2.3-7.6,3.4v-2.4h-6.2V-493"/>
	</g>
	<g id="g12205" transform="translate(141.2422,705.6097)">
		<path id="path12207" class="st0" d="M154.8-505.1c-1.8,2.8-4,3.9-6.2,3.9c-5,0-8.4-4-8.4-8.7c0-5.7,4-8.7,8.1-8.7
			c4.1,0,5.7,2.7,6.5,4.1h7.5c-2.9-8.6-10.5-10.2-14-10.2c-7.7,0-14.8,6.2-14.8,14.8c0,9.2,7.7,15,14.8,15c6.5,0,11.7-3.8,14-10
			H154.8"/>
	</g>
	<g id="g12209" transform="translate(153.5302,706.2231)">
		<path id="path12211" class="st1" d="M179.8-507.5c0.2-0.9,0.4-2.1,0.4-3.4c0-7-5.6-14.7-14.4-14.7c-8.6,0-14.7,7.2-14.7,15.1
			c0,8.1,6.4,14.8,14.7,14.8c6.5,0,11.9-4.7,13.5-9.7h-7c-1.3,2.3-3.5,3.6-6.4,3.6c-4.8,0-7.4-3.9-7.7-5.7H179.8z M157.9-512.9
			c1.3-5.2,5.4-6.5,7.9-6.5c3.3,0,6.8,2.1,7.5,6.5H157.9"/>
	</g>
	<g id="g12213" transform="translate(92.8631,733.0946)">
		<path id="path12215" class="st1" d="M56.5-615.9l-8.9,15.4l-49.4-2.8l4.9-8.6L56.5-615.9z M92.3-665l4.5,17l-70.1-4.6l4.9-8.6
			L92.3-665z M45.8-685.8l41,0l3.1,11.6l-49.1-3.1C40.8-677.3,45.8-685.8,45.8-685.8z M42.2-590.9L35-578.6l-51.1,0.1l4.9-8.6
			C-11.1-587.1,42.2-590.9,42.2-590.9z M131.8-623.9l-12.4,21.4h11.8c5.5,0,15.2-2.7,18.2-10.5c2.8-7.2-2.3-10.9-5.9-10.9
			C143.6-623.9,131.8-623.9,131.8-623.9z M143.6-644.4l10.3-0.1c6.8,0,14-3.2,16.6-9.5c2.4-5.9-0.8-10.9-5.1-10.9l-9.9,0
			C155.4-664.9,143.6-644.4,143.6-644.4z M97.1-648l10.4-18l35.1-2.3l1.2-2.2l-32.5-2.3l7.6-13.2l60.2,0c18.5,0,32.2,6.6,26.9,26.1
			c-1.6,5.9-9.1,20.7-31.2,27c4.7,0.6,16.3,5.7,14.3,19.1c-3.6,23.8-34.3,35.1-51.4,35.1l-71.1,0l-3.5-13.7l37.2-2.6l1.3-2.2
			l-40.4-2.5l-4.4-16.3l57.4-3.4l1.2-2.2l-103.2-6.5l4.9-8.6l111.1-7.2l1.3-2.2L97.1-648"/>
	</g>
</g>
</svg>
