<?xml version="1.0" encoding="utf-8"?>
<!-- Generator: Adobe Illustrator 27.1.0, SVG Export Plug-In . SVG Version: 6.00 Build 0)  -->
<svg version="1.1"
	 id="svg12494" xmlns:cc="http://creativecommons.org/ns#" xmlns:rdf="http://www.w3.org/1999/02/22-rdf-syntax-ns#" xmlns:dc="http://purl.org/dc/elements/1.1/" xmlns:svg="http://www.w3.org/2000/svg"
	 xmlns="http://www.w3.org/2000/svg" xmlns:xlink="http://www.w3.org/1999/xlink" x="0px" y="0px" viewBox="0 0 373.2 251.3"
	 style="enable-background:new 0 0 373.2 251.3;" xml:space="preserve">
<style type="text/css">
	.st0{fill-rule:evenodd;clip-rule:evenodd;fill:#FFFFFF;}
</style>
<g id="g12169">
	<g id="g12213" transform="translate(92.8631,733.0946)">
		<path id="path12215" class="st0" d="M56.5-615.9l-8.9,15.4l-49.4-2.8l4.9-8.6L56.5-615.9z M92.3-665l4.5,17l-70.1-4.6l4.9-8.6
			L92.3-665z M45.8-685.8h41l3.1,11.6l-49.1-3.1C40.8-677.3,45.8-685.8,45.8-685.8z M42.2-590.9L35-578.6l-51.1,0.1l4.9-8.6
			C-11.1-587.1,42.2-590.9,42.2-590.9z M131.8-623.9l-12.4,21.4h11.8c5.5,0,15.2-2.7,18.2-10.5c2.8-7.2-2.3-10.9-5.9-10.9
			C143.6-623.9,131.8-623.9,131.8-623.9z M143.6-644.4l10.3-0.1c6.8,0,14-3.2,16.6-9.5c2.4-5.9-0.8-10.9-5.1-10.9h-9.9
			C155.4-664.9,143.6-644.4,143.6-644.4z M97.1-648l10.4-18l35.1-2.3l1.2-2.2l-32.5-2.3l7.6-13.2h60.2c18.5,0,32.2,6.6,26.9,26.1
			c-1.6,5.9-9.1,20.7-31.2,27c4.7,0.6,16.3,5.7,14.3,19.1c-3.6,23.8-34.3,35.1-51.4,35.1H66.6l-3.5-13.7l37.2-2.6l1.3-2.2l-40.4-2.5
			L56.8-616l57.4-3.4l1.2-2.2l-103.2-6.5l4.9-8.6l111.1-7.2l1.3-2.2L97.1-648"/>
	</g>
</g>
</svg>
